STARTFONT 2.1
FONT -FontForge-Permanent Marker-Book-R-Normal--24-240-72-72-P-139-ISO10646-1
SIZE 24 72 72
FONTBOUNDINGBOX 37 35 -7 -8
COMMENT "Generated by fontforge, http://fontforge.sourceforge.net"
COMMENT "Copyright (c) 2010 by Font Diner, Inc. All rights reserved."
STARTPROPERTIES 39
FOUNDRY "FontForge"
FAMILY_NAME "Permanent Marker"
WEIGHT_NAME "Book"
SLANT "R"
SETWIDTH_NAME "Normal"
ADD_STYLE_NAME ""
PIXEL_SIZE 24
POINT_SIZE 240
RESOLUTION_X 72
RESOLUTION_Y 72
SPACING "P"
AVERAGE_WIDTH 139
CHARSET_REGISTRY "ISO10646"
CHARSET_ENCODING "1"
FONTNAME_REGISTRY ""
CHARSET_COLLECTIONS "ISO10646-1"
FONT_NAME "PermanentMarker-Regular"
FACE_NAME "Permanent Marker Regular"
COPYRIGHT "Copyright (c) 2010 by Font Diner, Inc. All rights reserved."
FONT_VERSION "1.001"
FONT_ASCENT 19
FONT_DESCENT 5
UNDERLINE_POSITION -2
UNDERLINE_THICKNESS 2
X_HEIGHT 13
CAP_HEIGHT 16
RAW_ASCENT 799
RAW_DESCENT 200
NORM_SPACE 9
RELATIVE_WEIGHT 40
RELATIVE_SETWIDTH 50
SUPERSCRIPT_X 0
SUPERSCRIPT_Y 11
SUPERSCRIPT_SIZE 15
SUBSCRIPT_X 0
SUBSCRIPT_Y 3
SUBSCRIPT_SIZE 15
AVG_LOWERCASE_WIDTH 137
AVG_UPPERCASE_WIDTH 163
ENDPROPERTIES
CHARS 230
STARTCHAR space
ENCODING 32
SWIDTH 370 0
DWIDTH 9 0
BBX 1 1 0 0
BITMAP
00
ENDCHAR
STARTCHAR exclam
ENCODING 33
SWIDTH 260 0
DWIDTH 6 0
BBX 7 19 0 -1
BITMAP
0C
0C
1C
1E
1C
1C
3C
3C
3C
38
38
38
10
00
40
F0
F0
70
60
ENDCHAR
STARTCHAR quotedbl
ENCODING 34
SWIDTH 492 0
DWIDTH 12 0
BBX 11 12 2 6
BITMAP
2180
39E0
79E0
7BC0
73C0
F380
F380
F780
E780
E700
6700
4200
ENDCHAR
STARTCHAR numbersign
ENCODING 35
SWIDTH 703 0
DWIDTH 17 0
BBX 16 17 1 0
BITMAP
0308
071C
079C
073C
0FFE
7FFF
7FFF
7E70
1C70
1DF8
FFFE
FFFC
F9E0
79E0
7BC0
73C0
7180
ENDCHAR
STARTCHAR dollar
ENCODING 36
SWIDTH 493 0
DWIDTH 12 0
BBX 12 19 1 -1
BITMAP
0100
0300
0380
0380
07E0
3FF0
FFF0
F800
FE00
7F00
0380
0380
0780
BF00
7E00
7C00
3800
3800
1000
ENDCHAR
STARTCHAR percent
ENCODING 37
SWIDTH 643 0
DWIDTH 15 0
BBX 15 17 1 0
BITMAP
0C06
1C0E
3C1C
7E3C
EE78
FEF0
FDE0
03C0
0780
0F20
1E70
3CF0
79F8
73B8
E3F8
E3F0
C080
ENDCHAR
STARTCHAR ampersand
ENCODING 38
SWIDTH 599 0
DWIDTH 14 0
BBX 14 12 0 1
BITMAP
0180
01C0
13C0
7FC0
7FE0
EFF8
FFFC
7FE0
0780
0780
0700
0700
ENDCHAR
STARTCHAR quotesingle
ENCODING 39
SWIDTH 265 0
DWIDTH 6 0
BBX 5 12 2 6
BITMAP
20
38
78
78
70
F0
F0
F0
E0
E0
60
40
ENDCHAR
STARTCHAR parenleft
ENCODING 40
SWIDTH 361 0
DWIDTH 9 0
BBX 10 24 1 -4
BITMAP
00C0
01C0
03C0
07C0
0F80
1F00
3E00
3C00
7C00
7800
7800
7000
F000
F000
F000
E000
E000
F000
F000
F000
F000
7000
3000
3000
ENDCHAR
STARTCHAR parenright
ENCODING 41
SWIDTH 361 0
DWIDTH 9 0
BBX 11 24 -3 -4
BITMAP
0300
0380
03C0
03C0
03C0
01E0
01E0
01E0
01E0
01E0
01E0
01C0
03C0
03C0
07C0
0780
0F80
0F00
1E00
7E00
7C00
F800
F000
E000
ENDCHAR
STARTCHAR asterisk
ENCODING 42
SWIDTH 673 0
DWIDTH 16 0
BBX 15 12 2 6
BITMAP
0800
0C70
1EF0
1FE0
0FC0
FFFC
FFFE
FFF0
0FE0
1FE0
3CE0
3C60
ENDCHAR
STARTCHAR plus
ENCODING 43
SWIDTH 579 0
DWIDTH 14 0
BBX 13 13 0 0
BITMAP
0100
0300
0780
0780
0780
7FF0
FFF8
7FF0
6F00
0F00
0E00
0E00
0400
ENDCHAR
STARTCHAR comma
ENCODING 44
SWIDTH 204 0
DWIDTH 5 0
BBX 6 8 -3 -4
BITMAP
10
3C
3C
3C
3C
78
F0
70
ENDCHAR
STARTCHAR hyphen
ENCODING 45
SWIDTH 609 0
DWIDTH 15 0
BBX 13 4 0 4
BITMAP
7FF0
FFF8
7FF8
2000
ENDCHAR
STARTCHAR period
ENCODING 46
SWIDTH 228 0
DWIDTH 5 0
BBX 5 5 -1 -1
BITMAP
20
78
F0
70
20
ENDCHAR
STARTCHAR slash
ENCODING 47
SWIDTH 401 0
DWIDTH 10 0
BBX 12 17 -1 0
BITMAP
0010
0030
0070
00F0
00E0
01C0
03C0
0780
0F00
1E00
1C00
3800
7800
F000
F000
E000
E000
ENDCHAR
STARTCHAR zero
ENCODING 48
SWIDTH 686 0
DWIDTH 16 0
BBX 16 19 0 -1
BITMAP
0070
00F0
01F8
03F8
07F8
0FF8
1FFC
3F3C
3E1C
7C1E
780E
780E
F01F
F07E
FFFE
7FFC
7FF8
3FE0
0200
ENDCHAR
STARTCHAR one
ENCODING 49
SWIDTH 322 0
DWIDTH 8 0
BBX 7 18 0 0
BITMAP
10
38
3C
3C
3C
1C
1C
1E
1C
3C
3C
3C
7C
78
78
78
F0
70
ENDCHAR
STARTCHAR two
ENCODING 50
SWIDTH 650 0
DWIDTH 16 0
BBX 16 17 1 0
BITMAP
7FE0
7FF0
7FF8
7FF8
10F8
01F8
03F0
0FE0
1FC0
1F80
3F00
7C06
7DFE
FFFF
FFFF
7FF8
7F00
ENDCHAR
STARTCHAR three
ENCODING 51
SWIDTH 561 0
DWIDTH 13 0
BBX 13 17 0 0
BITMAP
0FF0
7FF8
FFF8
FFF8
FFF8
1FE0
1F80
1FC0
1FE0
0FF0
03F0
00F8
43F0
7FF0
7FE0
FF80
7E00
ENDCHAR
STARTCHAR four
ENCODING 52
SWIDTH 582 0
DWIDTH 14 0
BBX 13 19 1 -1
BITMAP
0080
00C0
41C0
E1E0
E1C0
F1C0
F1D0
7FF8
7FF8
7FF0
3FC0
0780
0700
0700
0700
0700
0780
0780
0300
ENDCHAR
STARTCHAR five
ENCODING 53
SWIDTH 580 0
DWIDTH 14 0
BBX 15 17 1 0
BITMAP
0E00
1FFC
7FFC
7FFE
FFFE
FFC0
FC00
7F00
7F80
1F80
03C0
01E0
03E0
FFE0
FFC0
7FC0
1F00
ENDCHAR
STARTCHAR six
ENCODING 54
SWIDTH 500 0
DWIDTH 12 0
BBX 11 17 0 0
BITMAP
0780
0F80
0FC0
1F80
1E00
3C00
3C00
7800
79C0
77C0
FFE0
EFE0
EFE0
FFE0
FFC0
FF80
7C00
ENDCHAR
STARTCHAR seven
ENCODING 55
SWIDTH 576 0
DWIDTH 14 0
BBX 15 17 0 0
BITMAP
7F80
FFE0
FFE0
FFF0
00F0
0070
00F0
00FC
1FFE
3FFE
7FFC
3FC0
0780
0F00
0F00
0E00
0E00
ENDCHAR
STARTCHAR eight
ENCODING 56
SWIDTH 537 0
DWIDTH 13 0
BBX 13 17 1 0
BITMAP
1F30
3FB0
7FB8
7FB8
F3F8
F1F8
7FF0
7FC0
3F80
3F00
7F00
7780
7380
7F80
7F80
3F00
1E00
ENDCHAR
STARTCHAR nine
ENCODING 57
SWIDTH 529 0
DWIDTH 13 0
BBX 12 17 1 0
BITMAP
0F80
1FC0
3FE0
7FE0
F9E0
FFF0
FFF0
FFE0
7FC0
01C0
01C0
03C0
0380
0380
0380
0380
0300
ENDCHAR
STARTCHAR colon
ENCODING 58
SWIDTH 241 0
DWIDTH 6 0
BBX 6 11 -1 -1
BITMAP
38
3C
3C
18
00
00
20
78
F0
70
20
ENDCHAR
STARTCHAR semicolon
ENCODING 59
SWIDTH 245 0
DWIDTH 6 0
BBX 7 14 -2 -4
BITMAP
1C
1E
1E
0C
00
00
20
38
3C
3C
78
78
F0
60
ENDCHAR
STARTCHAR less
ENCODING 60
SWIDTH 625 0
DWIDTH 15 0
BBX 15 10 0 1
BITMAP
003E
00FE
07FC
5FF0
FF80
FC00
7F80
1FE0
07F0
00F8
ENDCHAR
STARTCHAR equal
ENCODING 61
SWIDTH 586 0
DWIDTH 14 0
BBX 13 9 0 2
BITMAP
07F0
7FF8
7FF8
7800
0000
1FE0
FFF0
FFE0
4000
ENDCHAR
STARTCHAR greater
ENCODING 62
SWIDTH 634 0
DWIDTH 15 0
BBX 15 10 -1 1
BITMAP
3E00
1FC0
0FF0
03FC
00FE
03FE
1FF4
7F80
FE00
F000
ENDCHAR
STARTCHAR question
ENCODING 63
SWIDTH 556 0
DWIDTH 13 0
BBX 14 19 1 -1
BITMAP
1E00
3FF0
7FFC
7FFC
3FFC
007C
01F8
03F0
0FE0
1F80
1F00
3C00
3800
0000
6000
F000
F000
7000
6000
ENDCHAR
STARTCHAR at
ENCODING 64
SWIDTH 732 0
DWIDTH 18 0
BBX 17 19 0 -1
BITMAP
007000
00F800
00FC00
01FE00
03CE00
0F8700
1F1B80
3C7B80
79FB80
F3F380
F7B380
E73380
E7FF00
C3FC00
F00000
7C0400
3FFC00
0FFE00
003000
ENDCHAR
STARTCHAR A
ENCODING 65
SWIDTH 702 0
DWIDTH 17 0
BBX 18 17 -1 0
BITMAP
003800
007800
00FC00
03FC00
07FC00
07FC00
0FBC00
0FBE00
1F1F00
1E7FC0
3FFF80
3FFF00
7DFF00
780F00
F83F00
781E00
701C00
ENDCHAR
STARTCHAR B
ENCODING 66
SWIDTH 686 0
DWIDTH 16 0
BBX 17 19 -1 -1
BITMAP
003000
0FFC00
7FFE00
FFFF00
7E1F00
7E3F00
17FE00
0FFC00
0FF800
0FFC00
0FFE00
1F0700
1E0F80
1E3F80
3EFF00
3FFE00
3FFC00
1FE000
110000
ENDCHAR
STARTCHAR C
ENCODING 67
SWIDTH 611 0
DWIDTH 15 0
BBX 14 17 0 0
BITMAP
0078
00FC
03FC
0FFC
1FF8
3FC0
7F00
FC00
F800
F000
F000
F000
7C00
7FF8
3FF8
1FFC
07F0
ENDCHAR
STARTCHAR D
ENCODING 68
SWIDTH 588 0
DWIDTH 14 0
BBX 14 17 0 0
BITMAP
3800
7E00
3F80
7FC0
33E0
38F0
3878
3818
381C
783C
78F8
7BF8
7FF0
FFC0
FF80
7C00
7000
ENDCHAR
STARTCHAR E
ENCODING 69
SWIDTH 626 0
DWIDTH 15 0
BBX 16 17 0 0
BITMAP
00FE
0FFF
3FFE
3FFC
3FC0
3E00
1FE0
3FF0
3FF8
7FF0
7800
F800
F038
FFFC
7FFC
7FF8
3FE0
ENDCHAR
STARTCHAR F
ENCODING 70
SWIDTH 575 0
DWIDTH 14 0
BBX 17 18 0 0
BITMAP
000E00
00FF00
0FFF80
3FFF80
7FE000
3F0000
3E0000
1E0000
1E0000
FFF800
FFF800
FFF000
FF8000
780000
700000
F00000
700000
700000
ENDCHAR
STARTCHAR G
ENCODING 71
SWIDTH 789 0
DWIDTH 19 0
BBX 20 17 0 0
BITMAP
001C00
007E00
01FE00
03FE00
07F800
0FE000
1F8400
3F0E00
7E1F80
7C0FE0
F807F0
F00FF0
F1FFE0
FFFFC0
7FFF00
7FF800
1F8000
ENDCHAR
STARTCHAR H
ENCODING 72
SWIDTH 695 0
DWIDTH 17 0
BBX 16 18 0 0
BITMAP
0004
100E
180E
3C0F
3C0F
3C0F
3C0F
3C0F
3C1F
3C3F
7FFF
7FFE
7FFE
FFBC
FE3C
F83C
F83C
7018
ENDCHAR
STARTCHAR I
ENCODING 73
SWIDTH 515 0
DWIDTH 12 0
BBX 17 17 -1 0
BITMAP
0FFF00
0FFF80
0FFF00
0FE000
00E000
01E000
01E000
01C000
03C000
03C000
078000
078000
078000
3FE000
FFF000
FFE000
7D0000
ENDCHAR
STARTCHAR J
ENCODING 74
SWIDTH 668 0
DWIDTH 16 0
BBX 19 17 0 0
BITMAP
07FFC0
3FFFE0
3FFFE0
3FFFE0
383C00
007800
007800
007800
007800
00F000
00F000
00F000
C1E000
FFE000
FFC000
FF8000
5F0000
ENDCHAR
STARTCHAR K
ENCODING 75
SWIDTH 776 0
DWIDTH 19 0
BBX 19 17 0 0
BITMAP
070000
0F8380
0F8FC0
1F1FC0
1F3F80
1EFF00
3FFC00
3FF800
3FF000
7FE000
7FE000
7FF840
FEFFE0
FC3FE0
781FE0
780780
700000
ENDCHAR
STARTCHAR L
ENCODING 76
SWIDTH 632 0
DWIDTH 15 0
BBX 15 18 0 0
BITMAP
0800
0F00
0F00
1F00
1F00
1E00
3E00
3E00
3C00
7C00
7800
7800
F800
FBF0
FFFC
FFFC
7FFE
3E00
ENDCHAR
STARTCHAR M
ENCODING 77
SWIDTH 973 0
DWIDTH 23 0
BBX 23 18 0 0
BITMAP
010000
038018
07C03C
07E07E
0FE0FE
0FE1FE
1FE3FE
1FFFFC
3FFFFE
3FFFBC
7DFF3C
7CFC3C
F8607C
F8007C
F80078
F00078
F00070
600020
ENDCHAR
STARTCHAR N
ENCODING 78
SWIDTH 684 0
DWIDTH 16 0
BBX 17 18 0 0
BITMAP
000400
070600
078700
0F8F80
0FCF80
1FCF00
1F8F00
3F8F00
3F9F00
3F9E00
7F9E00
7FBE00
FFFE00
FBFC00
F9FC00
F1F800
70F000
602000
ENDCHAR
STARTCHAR O
ENCODING 79
SWIDTH 744 0
DWIDTH 18 0
BBX 17 18 0 0
BITMAP
001000
007800
00FC00
01FC00
03FC00
0FFC00
0FFE00
1F0E00
3E0F00
7C0700
780780
780780
F00F80
F07F80
FFFF00
7FFE00
7FFC00
1FE000
ENDCHAR
STARTCHAR P
ENCODING 80
SWIDTH 639 0
DWIDTH 15 0
BBX 15 18 1 0
BITMAP
00C0
07F8
0FFC
1FFC
1FFE
3E1E
3C3E
7DFE
FFFE
FFFC
FFF0
FFC0
7800
F800
F800
F000
F000
7000
ENDCHAR
STARTCHAR Q
ENCODING 81
SWIDTH 744 0
DWIDTH 18 0
BBX 17 20 0 -2
BITMAP
005000
007800
00FC00
00FE00
03FE00
07FF00
0FE700
1F8780
3F0380
7EE380
FCF780
F87F80
F07F80
E0FF00
FFFE00
FFFE00
7FFF00
3F8F00
000700
000200
ENDCHAR
STARTCHAR R
ENCODING 82
SWIDTH 646 0
DWIDTH 16 0
BBX 16 19 0 -1
BITMAP
0040
01E0
03F0
07F8
07F8
3F7C
3E3C
3E3C
3DFC
7FF8
7FF0
7FC0
7E00
7F80
FFF0
F7FE
73FE
607F
001E
ENDCHAR
STARTCHAR S
ENCODING 83
SWIDTH 576 0
DWIDTH 14 0
BBX 16 18 0 0
BITMAP
0008
01FE
0FFF
3FFF
7FFF
FE00
FF80
FFC0
7FC0
03E0
0070
0070
00F0
03F0
3FE0
7FC0
7F80
3E00
ENDCHAR
STARTCHAR T
ENCODING 84
SWIDTH 607 0
DWIDTH 15 0
BBX 19 19 0 -1
BITMAP
000100
03FFC0
FFFFE0
FFFFE0
FFFC00
7FE000
03C000
03C000
078000
078000
0F8000
0F0000
0F0000
1E0000
1E0000
0E0000
0F0000
0F0000
020000
ENDCHAR
STARTCHAR U
ENCODING 85
SWIDTH 695 0
DWIDTH 17 0
BBX 16 17 1 0
BITMAP
0006
2006
6007
700F
700F
780F
F81F
F01F
F03E
F07E
F0FC
FFF8
FFF0
7FE0
7FC0
3F80
1E00
ENDCHAR
STARTCHAR V
ENCODING 86
SWIDTH 583 0
DWIDTH 14 0
BBX 14 18 2 0
BITMAP
0010
C038
E07C
E07C
F0F8
F1F8
F1F0
F3E0
F7C0
F780
FF80
FF00
FE00
7E00
7C00
7C00
7800
3800
ENDCHAR
STARTCHAR W
ENCODING 87
SWIDTH 994 0
DWIDTH 24 0
BBX 25 18 0 0
BITMAP
00000200
0C000300
0E040700
1F060780
1E0F0F80
3E1F0F80
3E1F0F00
3C3F1F00
7C7F1E00
7C7E3E00
78FE3C00
79FE7C00
7BFEFC00
FFFFF800
7FE7F000
7F87F000
3F03E000
1C01C000
ENDCHAR
STARTCHAR X
ENCODING 88
SWIDTH 623 0
DWIDTH 15 0
BBX 17 18 0 -1
BITMAP
300200
3C0F00
3E1F80
3F7F00
3FFE00
1FF800
0FF000
07E000
0FC000
1FE000
3FE000
7FF000
FCF800
F87800
F07800
E03800
E03800
400000
ENDCHAR
STARTCHAR Y
ENCODING 89
SWIDTH 493 0
DWIDTH 12 0
BBX 13 19 1 -1
BITMAP
4010
E078
F0F8
71F8
79F0
7BE0
7FE0
7FC0
3F80
3F00
1F00
3E00
3C00
7C00
7800
F800
F000
F000
6000
ENDCHAR
STARTCHAR Z
ENCODING 90
SWIDTH 664 0
DWIDTH 16 0
BBX 17 18 0 -1
BITMAP
0FFF00
1FFF00
0FFF80
0FFF00
007F00
00FC00
01F800
07F000
0FE000
3FC000
7F0000
FE0000
F83C00
F9FE00
FFFE00
FFF800
7FC000
3C0000
ENDCHAR
STARTCHAR bracketleft
ENCODING 91
SWIDTH 387 0
DWIDTH 9 0
BBX 18 26 -1 -4
BITMAP
003E00
03FF80
03FFC0
03FF80
038000
078000
078000
070000
070000
0F0000
0F0000
0E0000
0E0000
1E0000
1E0000
1C0000
3C0000
3C0000
3C0000
380000
780000
780000
7FE000
FFE000
7FE000
700000
ENDCHAR
STARTCHAR backslash
ENCODING 92
SWIDTH 352 0
DWIDTH 8 0
BBX 6 19 1 -1
BITMAP
40
E0
F0
70
70
70
70
70
30
38
38
38
38
38
18
1C
1C
1C
08
ENDCHAR
STARTCHAR bracketright
ENCODING 93
SWIDTH 403 0
DWIDTH 10 0
BBX 17 26 -7 -4
BITMAP
007E00
03FF00
03FF80
03FF80
010780
000700
000700
000F00
000F00
000E00
001E00
001E00
001E00
001C00
003C00
003C00
003C00
007800
007800
007800
007000
00F000
7FF000
FFE000
7FE000
700000
ENDCHAR
STARTCHAR asciicircum
ENCODING 94
SWIDTH 518 0
DWIDTH 12 0
BBX 11 14 0 4
BITMAP
0180
03C0
03C0
07C0
07C0
0FE0
0FE0
1EE0
3CE0
78E0
78E0
F0E0
E060
4020
ENDCHAR
STARTCHAR underscore
ENCODING 95
SWIDTH 708 0
DWIDTH 17 0
BBX 20 4 -3 -1
BITMAP
3FFF80
FFFFE0
7FFFF0
3C0000
ENDCHAR
STARTCHAR grave
ENCODING 96
SWIDTH 754 0
DWIDTH 18 0
BBX 7 7 7 11
BITMAP
40
F0
F8
FC
3E
1E
0E
ENDCHAR
STARTCHAR a
ENCODING 97
SWIDTH 581 0
DWIDTH 14 0
BBX 15 14 -1 0
BITMAP
00E0
01E0
07E0
0FF0
0FF0
1F70
1E70
1C7C
3FFE
3FFC
7BF8
7038
F078
7070
ENDCHAR
STARTCHAR b
ENCODING 98
SWIDTH 573 0
DWIDTH 14 0
BBX 14 16 -1 -1
BITMAP
0040
1FF0
7FF8
FF38
7C78
2FF8
0FF0
0FE0
1FF0
1E18
1C3C
3CFC
3FF8
3FF0
3FC0
1200
ENDCHAR
STARTCHAR c
ENCODING 99
SWIDTH 513 0
DWIDTH 12 0
BBX 12 14 0 0
BITMAP
00E0
03F0
0FF0
1FE0
3F00
7E00
F800
F000
E000
E000
F800
7FE0
3FE0
0FC0
ENDCHAR
STARTCHAR d
ENCODING 100
SWIDTH 497 0
DWIDTH 12 0
BBX 12 14 0 0
BITMAP
7000
7E00
7F00
7F80
71C0
30E0
3060
3070
71E0
77E0
7FC0
FF00
FC00
7000
ENDCHAR
STARTCHAR e
ENCODING 101
SWIDTH 521 0
DWIDTH 13 0
BBX 13 14 0 0
BITMAP
03F8
3FF8
7FF0
3F80
3800
3FC0
3FE0
7FC0
7F00
F000
F0E0
FFF0
7FF0
7FC0
ENDCHAR
STARTCHAR f
ENCODING 102
SWIDTH 455 0
DWIDTH 11 0
BBX 14 15 0 0
BITMAP
0030
03F8
1FFC
7FE0
7E00
3C00
1C00
7CC0
FFE0
FFC0
FF00
7000
F000
E000
6000
ENDCHAR
STARTCHAR g
ENCODING 103
SWIDTH 652 0
DWIDTH 16 0
BBX 17 14 0 0
BITMAP
007000
01F000
07F800
0FE000
1F8000
3E1000
7C3800
787E00
F03F00
F03F80
E3FF00
FFFE00
7FF000
3F8000
ENDCHAR
STARTCHAR h
ENCODING 104
SWIDTH 582 0
DWIDTH 14 0
BBX 14 15 0 0
BITMAP
0010
1030
3038
3838
3838
3838
383C
7878
7BF8
7FF8
7FF0
FEF0
F8F0
F0F0
E060
ENDCHAR
STARTCHAR i
ENCODING 105
SWIDTH 320 0
DWIDTH 8 0
BBX 6 14 1 0
BITMAP
10
38
38
7C
78
78
70
70
70
F0
F0
70
70
70
ENDCHAR
STARTCHAR j
ENCODING 106
SWIDTH 534 0
DWIDTH 13 0
BBX 16 14 0 0
BITMAP
1FFE
7FFF
7FFF
38E0
00E0
00E0
01E0
01C0
01C0
03C0
C780
FF80
FF00
7E00
ENDCHAR
STARTCHAR k
ENCODING 107
SWIDTH 645 0
DWIDTH 16 0
BBX 16 14 0 0
BITMAP
0E04
1E1C
1E3E
1EFE
3DF8
3FF0
3FC0
7F80
7F80
7FE0
FDFF
F8FF
703E
7000
ENDCHAR
STARTCHAR l
ENCODING 108
SWIDTH 533 0
DWIDTH 13 0
BBX 12 14 0 0
BITMAP
1C00
1E00
1E00
3C00
3C00
3800
7800
7800
7000
F000
F7C0
FFF0
7FF0
7F70
ENDCHAR
STARTCHAR m
ENCODING 109
SWIDTH 814 0
DWIDTH 20 0
BBX 19 15 0 0
BITMAP
020000
0700C0
0F81E0
0F83E0
1F87E0
1F9FE0
3FFFE0
3FFFE0
7BFDE0
7BF1C0
F8C1C0
F003C0
F003C0
E00380
600100
ENDCHAR
STARTCHAR n
ENCODING 110
SWIDTH 564 0
DWIDTH 14 0
BBX 14 14 0 0
BITMAP
0C18
0E1C
1F3C
1F3C
3E38
3E38
7E78
7E78
FEF8
FFF0
F7F0
F3E0
E1E0
6080
ENDCHAR
STARTCHAR o
ENCODING 111
SWIDTH 628 0
DWIDTH 15 0
BBX 14 15 0 0
BITMAP
0040
01E0
03F0
07E0
0FF0
1FF0
3E38
7C38
781C
F01C
F03C
F0FC
FFF8
7FF0
3FC0
ENDCHAR
STARTCHAR p
ENCODING 112
SWIDTH 524 0
DWIDTH 13 0
BBX 12 15 1 0
BITMAP
0300
0FE0
1FE0
3FF0
3CF0
7870
FFF0
FFF0
FFE0
FF80
F000
F000
E000
E000
E000
ENDCHAR
STARTCHAR q
ENCODING 113
SWIDTH 625 0
DWIDTH 15 0
BBX 14 16 0 -1
BITMAP
0040
01E0
01F0
03F0
07F8
1FBC
3E1C
7C0C
79DC
F1FC
E0FC
E3F8
FFF8
FFF8
7F38
0018
ENDCHAR
STARTCHAR r
ENCODING 114
SWIDTH 541 0
DWIDTH 13 0
BBX 13 16 0 -1
BITMAP
0100
0380
07C0
0FE0
3FE0
3CF0
38F0
7FF0
7FE0
7F80
7C00
7F00
FFE0
67F8
61F8
0078
ENDCHAR
STARTCHAR s
ENCODING 115
SWIDTH 463 0
DWIDTH 11 0
BBX 14 14 0 0
BITMAP
03F8
1FF8
7FFC
FE00
FE00
FF00
3F80
01C0
01C0
01C0
07C0
7F80
7F00
7C00
ENDCHAR
STARTCHAR t
ENCODING 116
SWIDTH 479 0
DWIDTH 12 0
BBX 16 15 0 -1
BITMAP
1FFE
FFFF
FFFE
7F80
0780
0700
0F00
0E00
1E00
1C00
1C00
1C00
1C00
1E00
0400
ENDCHAR
STARTCHAR u
ENCODING 117
SWIDTH 584 0
DWIDTH 14 0
BBX 14 14 1 0
BITMAP
0018
4018
6038
703C
7038
F038
F078
F0F0
F1F0
F7E0
FFC0
7F80
7F00
3C00
ENDCHAR
STARTCHAR v
ENCODING 118
SWIDTH 485 0
DWIDTH 12 0
BBX 11 14 2 0
BITMAP
C0E0
C0E0
E1E0
E3E0
E7C0
E780
EF00
FE00
FE00
FC00
FC00
7800
7800
3000
ENDCHAR
STARTCHAR w
ENCODING 119
SWIDTH 825 0
DWIDTH 20 0
BBX 21 15 0 0
BITMAP
000020
080030
1C1038
3C3878
3C3C78
3C78F0
78F8F0
78F8E0
79F9E0
73FBE0
77FFC0
FFFFC0
7F9F80
7E1F00
1C0E00
ENDCHAR
STARTCHAR x
ENCODING 120
SWIDTH 506 0
DWIDTH 12 0
BBX 14 15 0 -1
BITMAP
3018
3838
7CFC
3FF8
1FE0
0FC0
0F80
1F80
3F80
7FC0
F1E0
E1E0
E0E0
C0E0
4000
ENDCHAR
STARTCHAR y
ENCODING 121
SWIDTH 400 0
DWIDTH 10 0
BBX 11 16 1 -1
BITMAP
0040
E0E0
F1E0
F3E0
77C0
7F80
7F00
7E00
3E00
3C00
7800
7800
F000
F000
E000
6000
ENDCHAR
STARTCHAR z
ENCODING 122
SWIDTH 547 0
DWIDTH 13 0
BBX 14 15 0 -1
BITMAP
1FF8
1FFC
1FFC
00F8
01F0
03E0
0FC0
1F80
7E00
FC00
F0F0
FFF0
FFF0
7F80
7C00
ENDCHAR
STARTCHAR braceleft
ENCODING 123
SWIDTH 448 0
DWIDTH 11 0
BBX 19 26 0 -4
BITMAP
001F00
01FFC0
01FFE0
01FFC0
01C000
01C000
03C000
03C000
038000
0F8000
3F8000
7E0000
F80000
7E0000
3F0000
1F0000
0E0000
1E0000
1E0000
1C0000
3C0000
3C0000
3FF000
7FF800
3FF000
380000
ENDCHAR
STARTCHAR bar
ENCODING 124
SWIDTH 332 0
DWIDTH 8 0
BBX 8 18 0 0
BITMAP
02
06
07
07
0F
0E
0E
1C
1C
1C
38
38
38
78
70
F0
E0
E0
ENDCHAR
STARTCHAR braceright
ENCODING 125
SWIDTH 481 0
DWIDTH 12 0
BBX 18 26 -7 -4
BITMAP
00FE00
03FF00
03FF80
03FF00
010700
000700
000F00
000F00
000E00
001E00
001E00
001F00
001FC0
0007C0
000FC0
003FC0
007E00
007800
007800
007000
00F000
00F000
FFE000
FFE000
FFE000
700000
ENDCHAR
STARTCHAR asciitilde
ENCODING 126
SWIDTH 581 0
DWIDTH 14 0
BBX 13 5 0 5
BITMAP
0C00
3F38
7FF0
F7F0
E3E0
ENDCHAR
STARTCHAR uni00A0
ENCODING 160
SWIDTH 370 0
DWIDTH 9 0
BBX 1 1 0 0
BITMAP
00
ENDCHAR
STARTCHAR exclamdown
ENCODING 161
SWIDTH 260 0
DWIDTH 6 0
BBX 6 19 0 -1
BITMAP
18
3C
3C
3C
08
00
30
78
78
70
70
70
F0
F0
F0
E0
E0
E0
40
ENDCHAR
STARTCHAR cent
ENCODING 162
SWIDTH 488 0
DWIDTH 12 0
BBX 11 19 0 -1
BITMAP
0100
0180
0380
03C0
03E0
0FE0
1FC0
3E00
7800
F000
E000
E000
7E00
7FC0
1FE0
1D00
3C00
3800
1000
ENDCHAR
STARTCHAR sterling
ENCODING 163
SWIDTH 586 0
DWIDTH 14 0
BBX 14 14 0 2
BITMAP
00C0
03F8
07FC
0FFC
0F00
0E00
FFE0
7FE0
7FC0
1C00
3C20
FFF0
FFF0
7FF0
ENDCHAR
STARTCHAR currency
ENCODING 164
SWIDTH 509 0
DWIDTH 12 0
BBX 12 13 0 0
BITMAP
3320
3FF0
3FF0
3FE0
3FC0
79C0
71C0
7FC0
7FC0
FFC0
E1C0
E080
4000
ENDCHAR
STARTCHAR yen
ENCODING 165
SWIDTH 563 0
DWIDTH 14 0
BBX 14 15 0 0
BITMAP
1838
1C7C
1C78
1CF0
1FF0
1FE0
0FC0
7FF0
FFF8
7FF0
2F00
1E00
1E00
1C00
1800
ENDCHAR
STARTCHAR brokenbar
ENCODING 166
SWIDTH 301 0
DWIDTH 7 0
BBX 8 18 0 0
BITMAP
02
06
06
0F
0E
0E
1C
1C
0C
00
00
30
78
70
F0
F0
E0
E0
ENDCHAR
STARTCHAR section
ENCODING 167
SWIDTH 630 0
DWIDTH 15 0
BBX 15 21 0 -2
BITMAP
00F8
0FFC
3FFE
3FFC
3E00
3F00
1FE0
1FF0
3FF8
7FFC
783C
7CFC
3FFC
1FF8
0FF0
03F8
00F8
67F8
7FF8
FFF0
7F80
ENDCHAR
STARTCHAR dieresis
ENCODING 168
SWIDTH 754 0
DWIDTH 18 0
BBX 11 4 5 14
BITMAP
2000
71C0
F9E0
71C0
ENDCHAR
STARTCHAR copyright
ENCODING 169
SWIDTH 614 0
DWIDTH 15 0
BBX 15 14 0 3
BITMAP
07E0
0FB0
1E18
38EC
33EC
778E
6E06
6C0E
EC0E
6F8C
67DC
7038
38F0
0FC0
ENDCHAR
STARTCHAR ordfeminine
ENCODING 170
SWIDTH 454 0
DWIDTH 11 0
BBX 11 10 0 5
BITMAP
0700
1F00
1F80
3F80
3BC0
7FE0
7FC0
FFC0
E3C0
6380
ENDCHAR
STARTCHAR guillemotleft
ENCODING 171
SWIDTH 566 0
DWIDTH 14 0
BBX 13 11 0 -1
BITMAP
0618
0E38
1EF0
7DF0
F3C0
E380
F3C0
79E0
3CE0
0C70
0410
ENDCHAR
STARTCHAR logicalnot
ENCODING 172
SWIDTH 698 0
DWIDTH 17 0
BBX 15 8 0 0
BITMAP
FFFC
FFFE
FFFE
601E
001C
003C
0038
0038
ENDCHAR
STARTCHAR sfthyphen
ENCODING 173
SWIDTH 608 0
DWIDTH 15 0
BBX 13 4 0 4
BITMAP
7FF0
FFF8
7FF8
2000
ENDCHAR
STARTCHAR registered
ENCODING 174
SWIDTH 624 0
DWIDTH 15 0
BBX 14 14 1 3
BITMAP
07C0
1FF0
3CB8
39D8
73DC
E6EC
EFCC
CFCC
CE1C
DF98
EBF8
6070
71E0
1FC0
ENDCHAR
STARTCHAR macron
ENCODING 175
SWIDTH 754 0
DWIDTH 18 0
BBX 9 4 6 14
BITMAP
1F00
FF80
FF00
E400
ENDCHAR
STARTCHAR degree
ENCODING 176
SWIDTH 284 0
DWIDTH 7 0
BBX 7 8 2 12
BITMAP
08
1C
3C
7C
EE
FE
FE
78
ENDCHAR
STARTCHAR plusminus
ENCODING 177
SWIDTH 559 0
DWIDTH 13 0
BBX 14 18 -1 -1
BITMAP
0040
00C0
01E0
01C0
03E0
1FF8
3FFC
3FFC
1FC0
0380
0780
0780
0300
0000
7FF0
FFF8
7FF0
2000
ENDCHAR
STARTCHAR twosuperior
ENCODING 178
SWIDTH 386 0
DWIDTH 9 0
BBX 8 9 2 8
BITMAP
FC
FE
FE
3E
7C
F7
FF
FF
60
ENDCHAR
STARTCHAR threesuperior
ENCODING 179
SWIDTH 366 0
DWIDTH 9 0
BBX 8 9 2 8
BITMAP
FC
FE
FE
7C
3E
1E
7F
7E
30
ENDCHAR
STARTCHAR acute
ENCODING 180
SWIDTH 754 0
DWIDTH 18 0
BBX 7 7 7 11
BITMAP
04
1E
3E
7E
78
F0
E0
ENDCHAR
STARTCHAR mu
ENCODING 181
SWIDTH 569 0
DWIDTH 14 0
BBX 13 16 0 -3
BITMAP
0010
2018
3018
3038
3838
7838
7078
70F0
79F0
7FC0
FFC0
FF80
FE00
E000
E000
4000
ENDCHAR
STARTCHAR paragraph
ENCODING 182
SWIDTH 729 0
DWIDTH 18 0
BBX 18 19 1 -1
BITMAP
003F00
07FF80
1FFFC0
7FFF80
7FEF00
FDEE00
F1EE00
79CE00
7FDE00
3FFE00
0FFE00
03FE00
03BE00
07BC00
03B800
073C00
073C00
071C00
020800
ENDCHAR
STARTCHAR periodcentered
ENCODING 183
SWIDTH 226 0
DWIDTH 5 0
BBX 4 4 1 7
BITMAP
60
F0
F0
E0
ENDCHAR
STARTCHAR cedilla
ENCODING 184
SWIDTH 754 0
DWIDTH 18 0
BBX 9 8 6 -7
BITMAP
1C00
3800
3C00
3E00
0700
0780
FF00
7E00
ENDCHAR
STARTCHAR onesuperior
ENCODING 185
SWIDTH 206 0
DWIDTH 5 0
BBX 3 9 2 8
BITMAP
C0
E0
60
60
E0
E0
E0
C0
C0
ENDCHAR
STARTCHAR ordmasculine
ENCODING 186
SWIDTH 445 0
DWIDTH 11 0
BBX 10 11 0 5
BITMAP
0300
0700
0F80
1F80
3F80
7FC0
71C0
F7C0
FFC0
7F80
7F00
ENDCHAR
STARTCHAR guillemotright
ENCODING 187
SWIDTH 595 0
DWIDTH 14 0
BBX 13 11 0 -1
BITMAP
6180
71C0
79E0
3CF0
0E38
3E78
7DF0
F3C0
E380
C300
8200
ENDCHAR
STARTCHAR onequarter
ENCODING 188
SWIDTH 705 0
DWIDTH 17 0
BBX 15 18 1 0
BITMAP
0010
6030
7070
70F0
70F0
71E0
73C0
E780
E708
4E1C
1FDC
3DDC
79FE
F0FE
E0F8
E030
E070
E038
ENDCHAR
STARTCHAR onehalf
ENCODING 189
SWIDTH 750 0
DWIDTH 18 0
BBX 16 18 1 0
BITMAP
0010
6030
7070
70F0
70F0
71E0
73C0
E780
E700
4E70
1EFC
3CFC
783E
F07C
E0F0
E0FF
E0FF
E0F8
ENDCHAR
STARTCHAR threequarters
ENCODING 190
SWIDTH 818 0
DWIDTH 20 0
BBX 16 17 2 0
BITMAP
FE06
FE0E
FE1E
7C3C
7C78
FEF0
FDE0
FBC2
0786
0F67
1E76
3C7F
787F
703C
F01C
F018
E01C
ENDCHAR
STARTCHAR questiondown
ENCODING 191
SWIDTH 556 0
DWIDTH 13 0
BBX 13 19 -1 -1
BITMAP
0010
0078
0078
0078
0010
0000
0060
00E0
03E0
0FC0
3F80
7F00
FC00
F800
FF70
FFF0
FFF0
7FE0
07C0
ENDCHAR
STARTCHAR Agrave
ENCODING 192
SWIDTH 702 0
DWIDTH 17 0
BBX 18 25 -1 0
BITMAP
004000
00F000
00F800
00FC00
003E00
001E00
000E00
000000
003800
007800
00FC00
03FC00
07FC00
07FC00
0FBC00
0FBE00
1F1F00
1E7FC0
3FFF80
3FFF00
7DFF00
780F00
F83F00
781E00
701C00
ENDCHAR
STARTCHAR Aacute
ENCODING 193
SWIDTH 702 0
DWIDTH 17 0
BBX 18 26 -1 0
BITMAP
000400
000E00
001E00
003E00
007800
00F000
00E000
000000
000000
003800
007800
00FC00
03FC00
07FC00
07FC00
0FBC00
0FBE00
1F1F00
1E7FC0
3FFF80
3FFF00
7DFF00
780F00
F83F00
781E00
701C00
ENDCHAR
STARTCHAR Acircumflex
ENCODING 194
SWIDTH 702 0
DWIDTH 17 0
BBX 18 25 -1 0
BITMAP
001000
003800
00FE00
01EF00
01EF00
01C700
008200
000000
003800
007800
00FC00
03FC00
07FC00
07FC00
0FBC00
0FBE00
1F1F00
1E7FC0
3FFF80
3FFF00
7DFF00
780F00
F83F00
781E00
701C00
ENDCHAR
STARTCHAR Atilde
ENCODING 195
SWIDTH 702 0
DWIDTH 17 0
BBX 19 23 -1 0
BITMAP
0078E0
00FDC0
00FFC0
01DF80
010600
000000
003800
007800
00FC00
03FC00
07FC00
07FC00
0FBC00
0FBE00
1F1F00
1E7FC0
3FFF80
3FFF00
7DFF00
780F00
F83F00
781E00
701C00
ENDCHAR
STARTCHAR Adieresis
ENCODING 196
SWIDTH 702 0
DWIDTH 17 0
BBX 18 23 -1 0
BITMAP
008000
01C780
01E780
01C700
000000
000000
003800
007800
00FC00
03FC00
07FC00
07FC00
0FBC00
0FBE00
1F1F00
1E7FC0
3FFF80
3FFF00
7DFF00
780F00
F83F00
781E00
701C00
ENDCHAR
STARTCHAR Aring
ENCODING 197
SWIDTH 702 0
DWIDTH 17 0
BBX 18 23 -1 0
BITMAP
000C00
001E00
003E00
007E00
007700
007F00
007E00
007800
00FC00
03FC00
07FC00
07FC00
0FBC00
0FBE00
1F1F00
1E7FC0
3FFF80
3FFF00
7DFF00
780F00
F83F00
781E00
701C00
ENDCHAR
STARTCHAR AE
ENCODING 198
SWIDTH 1153 0
DWIDTH 28 0
BBX 30 17 -2 0
BITMAP
000E01F8
001E1FFC
007E7FFC
01FEFFF0
01FE7F00
03FE7800
07DE7FC0
07DF7FE0
0F8FFFF0
1F3FFFC0
1FFFF000
3FFFE000
3DFFE060
780FFFF8
F83FFFF8
701FFFF0
601CFFC0
ENDCHAR
STARTCHAR Ccedilla
ENCODING 199
SWIDTH 611 0
DWIDTH 15 0
BBX 14 25 0 -8
BITMAP
0078
00FC
03FC
0FFC
1FF8
3FC0
7F00
FC00
F800
F000
F000
F000
7C00
7FF8
3FF8
1FFC
07F0
0E00
1E00
1F80
0780
01C0
3FC0
3F80
0C00
ENDCHAR
STARTCHAR Egrave
ENCODING 200
SWIDTH 626 0
DWIDTH 15 0
BBX 16 26 0 0
BITMAP
0100
03C0
03C0
03E0
00F0
0078
0038
0000
0000
00FE
0FFF
3FFE
3FFC
3FC0
3E00
1FE0
3FF0
3FF8
7FF0
7800
F800
F038
FFFC
7FFC
7FF8
3FE0
ENDCHAR
STARTCHAR Eacute
ENCODING 201
SWIDTH 626 0
DWIDTH 15 0
BBX 16 26 0 0
BITMAP
0008
003C
007C
00FC
01F0
01E0
01C0
0000
0000
00FE
0FFF
3FFE
3FFC
3FC0
3E00
1FE0
3FF0
3FF8
7FF0
7800
F800
F038
FFFC
7FFC
7FF8
3FE0
ENDCHAR
STARTCHAR Ecircumflex
ENCODING 202
SWIDTH 626 0
DWIDTH 15 0
BBX 16 25 0 0
BITMAP
0040
00F0
01F8
03FC
079E
070C
0204
0000
00FE
0FFF
3FFE
3FFC
3FC0
3E00
1FE0
3FF0
3FF8
7FF0
7800
F800
F038
FFFC
7FFC
7FF8
3FE0
ENDCHAR
STARTCHAR Edieresis
ENCODING 203
SWIDTH 626 0
DWIDTH 15 0
BBX 16 23 0 0
BITMAP
0100
071E
079E
070E
0000
0000
00FE
0FFF
3FFE
3FFC
3FC0
3E00
1FE0
3FF0
3FF8
7FF0
7800
F800
F038
FFFC
7FFC
7FF8
3FE0
ENDCHAR
STARTCHAR Igrave
ENCODING 204
SWIDTH 515 0
DWIDTH 12 0
BBX 17 27 -1 0
BITMAP
018000
03C000
03E000
01F000
00F800
007800
003800
000000
000000
000000
0FFF00
0FFF80
0FFF00
0FE000
00E000
01E000
01E000
01C000
03C000
03C000
078000
078000
078000
3FE000
FFF000
FFE000
7D0000
ENDCHAR
STARTCHAR Iacute
ENCODING 205
SWIDTH 515 0
DWIDTH 12 0
BBX 17 27 -1 0
BITMAP
000200
000700
000F00
001F00
003C00
007800
007000
000000
000000
000000
0FFF00
0FFF80
0FFF00
0FE000
00E000
01E000
01E000
01C000
03C000
03C000
078000
078000
078000
3FE000
FFF000
FFE000
7D0000
ENDCHAR
STARTCHAR Icircumflex
ENCODING 206
SWIDTH 515 0
DWIDTH 12 0
BBX 17 26 -1 0
BITMAP
001000
007800
00FC00
01FE00
03CF00
018700
010200
000000
000000
0FFF00
0FFF80
0FFF00
0FE000
00E000
01E000
01E000
01C000
03C000
03C000
078000
078000
078000
3FE000
FFF000
FFE000
7D0000
ENDCHAR
STARTCHAR Idieresis
ENCODING 207
SWIDTH 515 0
DWIDTH 12 0
BBX 17 24 -1 0
BITMAP
008000
01C700
03E780
01C700
000000
000000
000000
0FFF00
0FFF80
0FFF00
0FE000
00E000
01E000
01E000
01C000
03C000
03C000
078000
078000
078000
3FE000
FFF000
FFE000
7D0000
ENDCHAR
STARTCHAR Eth
ENCODING 208
SWIDTH 656 0
DWIDTH 16 0
BBX 15 17 0 0
BITMAP
1C00
1F80
0FC0
1FF0
1DF8
1C3C
3F1E
FF8E
FF8E
FF1E
DC7E
1DFC
3FF8
3FF0
3FC0
3F00
1C00
ENDCHAR
STARTCHAR Ntilde
ENCODING 209
SWIDTH 684 0
DWIDTH 16 0
BBX 18 24 0 0
BITMAP
0079C0
00FFC0
01FF80
03DF00
010E00
000000
000400
070600
078700
0F8F80
0FCF80
1FCF00
1F8F00
3F8F00
3F9F00
3F9E00
7F9E00
7FBE00
FFFE00
FBFC00
F9FC00
F1F800
70F000
602000
ENDCHAR
STARTCHAR Ograve
ENCODING 210
SWIDTH 744 0
DWIDTH 18 0
BBX 17 25 0 0
BITMAP
002000
007800
007C00
007E00
001E00
000F00
000700
001000
007800
00FC00
01FC00
03FC00
0FFC00
0FFE00
1F0E00
3E0F00
7C0700
780780
780780
F00F80
F07F80
FFFF00
7FFE00
7FFC00
1FE000
ENDCHAR
STARTCHAR Oacute
ENCODING 211
SWIDTH 744 0
DWIDTH 18 0
BBX 17 26 0 0
BITMAP
000800
001C00
003C00
007C00
00F000
01E000
01C000
000000
001000
007800
00FC00
01FC00
03FC00
0FFC00
0FFE00
1F0E00
3E0F00
7C0700
780780
780780
F00F80
F07F80
FFFF00
7FFE00
7FFC00
1FE000
ENDCHAR
STARTCHAR Ocircumflex
ENCODING 212
SWIDTH 744 0
DWIDTH 18 0
BBX 17 25 0 0
BITMAP
001000
003C00
007E00
00FF00
01E780
01C300
008100
001000
007800
00FC00
01FC00
03FC00
0FFC00
0FFE00
1F0E00
3E0F00
7C0700
780780
780780
F00F80
F07F80
FFFF00
7FFE00
7FFC00
1FE000
ENDCHAR
STARTCHAR Otilde
ENCODING 213
SWIDTH 744 0
DWIDTH 18 0
BBX 18 24 0 0
BITMAP
0079C0
00FFC0
01FF80
03DF00
010E00
000000
001000
007800
00FC00
01FC00
03FC00
0FFC00
0FFE00
1F0E00
3E0F00
7C0700
780780
780780
F00F80
F07F80
FFFF00
7FFE00
7FFC00
1FE000
ENDCHAR
STARTCHAR Odieresis
ENCODING 214
SWIDTH 744 0
DWIDTH 18 0
BBX 17 23 0 0
BITMAP
008000
01C780
01E780
01C700
000000
001000
007800
00FC00
01FC00
03FC00
0FFC00
0FFE00
1F0E00
3E0F00
7C0700
780780
780780
F00F80
F07F80
FFFF00
7FFE00
7FFC00
1FE000
ENDCHAR
STARTCHAR multiply
ENCODING 215
SWIDTH 490 0
DWIDTH 12 0
BBX 12 12 0 0
BITMAP
3060
38F0
3FE0
1FC0
1F00
1E00
3F00
7F80
F380
E1C0
C180
4080
ENDCHAR
STARTCHAR Oslash
ENCODING 216
SWIDTH 744 0
DWIDTH 18 0
BBX 17 21 0 -3
BITMAP
001080
007B80
00FF80
01FF80
03FF80
0FFF00
0FFE00
1F3E00
3E7F00
7CF700
79F780
7BE780
F3CF80
F7FF80
FFFF00
7FFE00
7FFC00
3FE000
3C0000
3C0000
1C0000
ENDCHAR
STARTCHAR Ugrave
ENCODING 217
SWIDTH 695 0
DWIDTH 17 0
BBX 16 24 1 0
BITMAP
0400
0F00
0F80
0FC0
03C0
01E0
00E0
0006
2006
6007
700F
700F
780F
F81F
F01F
F03E
F07E
F0FC
FFF8
FFF0
7FE0
7FC0
3F80
1E00
ENDCHAR
STARTCHAR Uacute
ENCODING 218
SWIDTH 695 0
DWIDTH 17 0
BBX 16 25 1 0
BITMAP
0008
001C
003C
007C
00F0
01E0
01C0
0000
0006
2006
6007
700F
700F
780F
F81F
F01F
F03E
F07E
F0FC
FFF8
FFF0
7FE0
7FC0
3F80
1E00
ENDCHAR
STARTCHAR Ucircumflex
ENCODING 219
SWIDTH 695 0
DWIDTH 17 0
BBX 16 25 1 0
BITMAP
0040
01E0
03F0
07F8
0F3C
061C
0408
0000
0006
2006
6007
700F
700F
780F
F81F
F01F
F03E
F07E
F0FC
FFF8
FFF0
7FE0
7FC0
3F80
1E00
ENDCHAR
STARTCHAR Udieresis
ENCODING 220
SWIDTH 695 0
DWIDTH 17 0
BBX 16 23 1 0
BITMAP
0200
0F1C
0F1C
0F3C
0000
0000
0006
2006
6007
700F
700F
780F
F81F
F01F
F03E
F07E
F0FC
FFF8
FFF0
7FE0
7FC0
3F80
1E00
ENDCHAR
STARTCHAR Yacute
ENCODING 221
SWIDTH 493 0
DWIDTH 12 0
BBX 13 28 1 -1
BITMAP
0030
0070
00F8
01F0
03E0
03C0
0380
0000
0000
4010
E078
F0F8
71F8
79F0
7BE0
7FE0
7FC0
3F80
3F00
1F00
3E00
3C00
7C00
7800
F800
F000
F000
6000
ENDCHAR
STARTCHAR Thorn
ENCODING 222
SWIDTH 680 0
DWIDTH 16 0
BBX 15 17 1 0
BITMAP
3800
3800
7800
7FF0
7FFC
7FFE
783E
F83E
F87E
F1FE
FFF8
FFF0
FF80
FC00
F000
F000
7000
ENDCHAR
STARTCHAR germandbls
ENCODING 223
SWIDTH 931 0
DWIDTH 22 0
BBX 25 14 0 0
BITMAP
03F87F00
1FFBFF80
7FFFFF80
FE0FC000
FE1FC000
FF0FF000
3F87F000
01C03800
01C01800
01C03800
07C0F800
7F8FF000
7F0FE000
7C0F8000
ENDCHAR
STARTCHAR agrave
ENCODING 224
SWIDTH 581 0
DWIDTH 14 0
BBX 15 23 -1 0
BITMAP
0180
01C0
03E0
01F0
00F8
0078
0038
0000
0000
00E0
01E0
07E0
0FF0
0FF0
1F70
1E70
1C7C
3FFE
3FFC
7BF8
7038
F078
7070
ENDCHAR
STARTCHAR aacute
ENCODING 225
SWIDTH 581 0
DWIDTH 14 0
BBX 15 23 -1 0
BITMAP
0010
0038
0078
00F8
01F0
03C0
0380
0000
0000
00E0
01E0
07E0
0FF0
0FF0
1F70
1E70
1C7C
3FFE
3FFC
7BF8
7038
F078
7070
ENDCHAR
STARTCHAR acircumflex
ENCODING 226
SWIDTH 581 0
DWIDTH 14 0
BBX 15 22 -1 0
BITMAP
0040
00F0
01F8
07FC
079C
071C
0208
0000
00E0
01E0
07E0
0FF0
0FF0
1F70
1E70
1C7C
3FFE
3FFC
7BF8
7038
F078
7070
ENDCHAR
STARTCHAR atilde
ENCODING 227
SWIDTH 581 0
DWIDTH 14 0
BBX 16 20 -1 0
BITMAP
01E7
03F7
07FE
077E
0418
0000
00E0
01E0
07E0
0FF0
0FF0
1F70
1E70
1C7C
3FFE
3FFC
7BF8
7038
F078
7070
ENDCHAR
STARTCHAR adieresis
ENCODING 228
SWIDTH 581 0
DWIDTH 14 0
BBX 16 21 -1 0
BITMAP
0100
078E
078F
078E
0000
0000
0000
00E0
01E0
07E0
0FF0
0FF0
1F70
1E70
1C7C
3FFE
3FFC
7BF8
7038
F078
7070
ENDCHAR
STARTCHAR aring
ENCODING 229
SWIDTH 581 0
DWIDTH 14 0
BBX 15 20 -1 0
BITMAP
0010
0038
00F8
00F8
01DC
01FC
01F8
01E0
07E0
0FF0
0FF0
1F70
1E70
1C7C
3FFE
3FFC
7BF8
7038
F078
7070
ENDCHAR
STARTCHAR ae
ENCODING 230
SWIDTH 948 0
DWIDTH 23 0
BBX 25 14 -2 0
BITMAP
00383F80
0079FF80
03FBFF00
03FBF800
07FBC000
0FB9FC00
0F3BFE00
1E3FFE00
1FFFF800
3FFF0000
7BFF0600
703FFF00
F07FFF00
6077FC00
ENDCHAR
STARTCHAR ccedilla
ENCODING 231
SWIDTH 513 0
DWIDTH 12 0
BBX 12 21 0 -7
BITMAP
00E0
03F0
0FF0
1FE0
3F00
7E00
F800
F000
E000
E000
F800
7FE0
3FE0
0FC0
1C00
1C00
1F00
0380
0380
3F80
1E00
ENDCHAR
STARTCHAR egrave
ENCODING 232
SWIDTH 521 0
DWIDTH 13 0
BBX 13 23 0 0
BITMAP
0800
1E00
1F00
1F80
0780
03C0
01C0
0000
0000
03F8
3FF8
7FF0
3F80
3800
3FC0
3FE0
7FC0
7F00
F000
F0E0
FFF0
7FF0
7FC0
ENDCHAR
STARTCHAR eacute
ENCODING 233
SWIDTH 521 0
DWIDTH 13 0
BBX 13 23 0 0
BITMAP
0020
00F0
01F0
03F0
03C0
0780
0700
0000
0000
03F8
3FF8
7FF0
3F80
3800
3FC0
3FE0
7FC0
7F00
F000
F0E0
FFF0
7FF0
7FC0
ENDCHAR
STARTCHAR ecircumflex
ENCODING 234
SWIDTH 521 0
DWIDTH 13 0
BBX 14 22 0 0
BITMAP
0080
01E0
03F0
07F8
0F3C
0E18
0408
0000
03F8
3FF8
7FF0
3F80
3800
3FC0
3FE0
7FC0
7F00
F000
F0E0
FFF0
7FF0
7FC0
ENDCHAR
STARTCHAR edieresis
ENCODING 235
SWIDTH 521 0
DWIDTH 13 0
BBX 15 21 0 0
BITMAP
0200
0F1C
0F1E
0F1C
0000
0000
0000
03F8
3FF8
7FF0
3F80
3800
3FC0
3FE0
7FC0
7F00
F000
F0E0
FFF0
7FF0
7FC0
ENDCHAR
STARTCHAR igrave
ENCODING 236
SWIDTH 320 0
DWIDTH 8 0
BBX 8 23 1 0
BITMAP
20
78
7C
7E
1E
0F
07
00
00
10
38
38
7C
78
78
70
70
70
F0
F0
70
70
70
ENDCHAR
STARTCHAR iacute
ENCODING 237
SWIDTH 320 0
DWIDTH 8 0
BBX 12 23 1 0
BITMAP
0040
00E0
01F0
03E0
07C0
0780
0600
0000
0000
1000
3800
3800
7C00
7800
7800
7000
7000
7000
F000
F000
7000
7000
7000
ENDCHAR
STARTCHAR icircumflex
ENCODING 238
SWIDTH 320 0
DWIDTH 8 0
BBX 10 22 1 0
BITMAP
0800
1E00
3F00
7F80
F3C0
E180
4080
0000
1000
3800
3800
7C00
7800
7800
7000
7000
7000
F000
F000
7000
7000
7000
ENDCHAR
STARTCHAR idieresis
ENCODING 239
SWIDTH 320 0
DWIDTH 8 0
BBX 10 21 1 0
BITMAP
2000
E3C0
F3C0
E3C0
0000
0000
0000
1000
3800
3800
7C00
7800
7800
7000
7000
7000
F000
F000
7000
7000
7000
ENDCHAR
STARTCHAR eth
ENCODING 240
SWIDTH 541 0
DWIDTH 13 0
BBX 14 15 -1 0
BITMAP
1000
1C00
0F80
1FC0
1FE0
1C70
7E38
FF18
7F1C
7C78
1DF8
1FF0
3FC0
3F00
1C00
ENDCHAR
STARTCHAR ntilde
ENCODING 241
SWIDTH 564 0
DWIDTH 14 0
BBX 17 21 0 0
BITMAP
00E380
03F780
03FF00
073E00
021C00
000000
000000
0C1800
0E1C00
1F3C00
1F3C00
3E3800
3E3800
7E7800
7E7800
FEF800
FFF000
F7F000
F3E000
E1E000
608000
ENDCHAR
STARTCHAR ograve
ENCODING 242
SWIDTH 628 0
DWIDTH 15 0
BBX 14 22 0 0
BITMAP
0180
01C0
03E0
01F0
00F8
0078
0038
0040
01E0
03F0
07E0
0FF0
1FF0
3E38
7C38
781C
F01C
F03C
F0FC
FFF8
7FF0
3FC0
ENDCHAR
STARTCHAR oacute
ENCODING 243
SWIDTH 628 0
DWIDTH 15 0
BBX 14 23 0 0
BITMAP
0030
0070
00F8
01F0
03E0
03C0
0380
0000
0040
01E0
03F0
07E0
0FF0
1FF0
3E38
7C38
781C
F01C
F03C
F0FC
FFF8
7FF0
3FC0
ENDCHAR
STARTCHAR ocircumflex
ENCODING 244
SWIDTH 628 0
DWIDTH 15 0
BBX 15 22 0 0
BITMAP
0020
00F0
01F8
03FC
079E
030E
0204
0040
01E0
03F0
07E0
0FF0
1FF0
3E38
7C38
781C
F01C
F03C
F0FC
FFF8
7FF0
3FC0
ENDCHAR
STARTCHAR otilde
ENCODING 245
SWIDTH 628 0
DWIDTH 15 0
BBX 17 20 0 0
BITMAP
00E380
03F780
03FF00
073E00
021C00
004000
01E000
03F000
07E000
0FF000
1FF000
3E3800
7C3800
781C00
F01C00
F03C00
F0FC00
FFF800
7FF000
3FC000
ENDCHAR
STARTCHAR odieresis
ENCODING 246
SWIDTH 628 0
DWIDTH 15 0
BBX 16 21 0 0
BITMAP
0100
038E
07CF
038E
0000
0000
0040
01E0
03F0
07E0
0FF0
1FF0
3E38
7C38
781C
F01C
F03C
F0FC
FFF8
7FF0
3FC0
ENDCHAR
STARTCHAR divide
ENCODING 247
SWIDTH 559 0
DWIDTH 13 0
BBX 12 14 0 0
BITMAP
0300
0780
0780
0780
0000
0180
FFF0
FFF0
7FC0
0000
0E00
1E00
1E00
0E00
ENDCHAR
STARTCHAR oslash
ENCODING 248
SWIDTH 632 0
DWIDTH 15 0
BBX 14 18 0 -3
BITMAP
0044
01EC
03FC
07FC
0FFC
1FF8
3EF8
7DF8
7BDC
739C
F7BC
EFFC
FFFC
7FF0
3FC0
3800
3800
1800
ENDCHAR
STARTCHAR ugrave
ENCODING 249
SWIDTH 584 0
DWIDTH 14 0
BBX 14 23 1 0
BITMAP
0400
0E00
1F00
0F80
07C0
03C0
00C0
0000
0000
0018
4018
6038
703C
7038
F038
F078
F0F0
F1F0
F7E0
FFC0
7F80
7F00
3C00
ENDCHAR
STARTCHAR uacute
ENCODING 250
SWIDTH 584 0
DWIDTH 14 0
BBX 14 22 1 0
BITMAP
0030
0070
00F8
01F0
03E0
03C0
0380
0000
0018
4018
6038
703C
7038
F038
F078
F0F0
F1F0
F7E0
FFC0
7F80
7F00
3C00
ENDCHAR
STARTCHAR ucircumflex
ENCODING 251
SWIDTH 584 0
DWIDTH 14 0
BBX 14 22 1 0
BITMAP
0080
03C0
07E0
0FF0
1E78
0C38
0810
0000
0018
4018
6038
703C
7038
F038
F078
F0F0
F1F0
F7E0
FFC0
7F80
7F00
3C00
ENDCHAR
STARTCHAR udieresis
ENCODING 252
SWIDTH 584 0
DWIDTH 14 0
BBX 14 21 1 0
BITMAP
0400
1E38
1E3C
1E38
0000
0000
0000
0018
4018
6038
703C
7038
F038
F078
F0F0
F1F0
F7E0
FFC0
7F80
7F00
3C00
ENDCHAR
STARTCHAR yacute
ENCODING 253
SWIDTH 400 0
DWIDTH 10 0
BBX 12 25 1 -1
BITMAP
0020
00F0
01F0
03F0
03C0
0780
0700
0000
0000
0040
E0E0
F1E0
F3E0
77C0
7F80
7F00
7E00
3E00
3C00
7800
7800
F000
F000
E000
6000
ENDCHAR
STARTCHAR thorn
ENCODING 254
SWIDTH 579 0
DWIDTH 14 0
BBX 13 15 1 0
BITMAP
1000
3000
7000
7FC0
7FF0
7FF8
F078
F0F8
F3F0
FFE0
FF80
FE00
E000
E000
6000
ENDCHAR
STARTCHAR ydieresis
ENCODING 255
SWIDTH 400 0
DWIDTH 10 0
BBX 13 22 1 -1
BITMAP
0800
3C70
3C78
3C70
0000
0000
0040
E0E0
F1E0
F3E0
77C0
7F80
7F00
7E00
3E00
3C00
7800
7800
F000
F000
E000
6000
ENDCHAR
STARTCHAR dotlessi
ENCODING 305
SWIDTH 320 0
DWIDTH 8 0
BBX 6 14 1 0
BITMAP
10
38
38
7C
78
78
70
70
70
F0
F0
70
70
70
ENDCHAR
STARTCHAR Lslash
ENCODING 321
SWIDTH 632 0
DWIDTH 15 0
BBX 17 18 -2 0
BITMAP
020000
03C000
03C000
07C000
07C000
078000
0FE000
0FF000
7FE000
FF0000
FE0000
7E0000
3E0000
3EFC00
3FFF00
3FFF00
1FFF80
0F8000
ENDCHAR
STARTCHAR lslash
ENCODING 322
SWIDTH 533 0
DWIDTH 13 0
BBX 14 14 -2 0
BITMAP
0700
0780
0780
0F00
0F80
0FE0
7FC0
FE00
FC00
7C00
3DF0
3FFC
1FFC
1FDC
ENDCHAR
STARTCHAR OE
ENCODING 338
SWIDTH 1212 0
DWIDTH 29 0
BBX 30 18 0 0
BITMAP
00100000
007803F8
00FC3FFC
01FCFFF8
03FCFFF0
0FFCFF00
0FFEF800
1F0E7F80
3E0FFFC0
7C07FFE0
7807FFC0
7807E000
F00FE000
F07FC0E0
FFFFFFF0
7FFFFFF0
7FFDFFE0
1FE0FF80
ENDCHAR
STARTCHAR oe
ENCODING 339
SWIDTH 1010 0
DWIDTH 24 0
BBX 25 15 0 0
BITMAP
00400000
01E03F00
03F3FF80
07E7FF00
0FF7F000
1FF38000
3E3BF800
7C3BFE00
781FFC00
F01FF000
F03F0000
F0FE0E00
FFFFFF00
7FFFFE00
3FC7FC00
ENDCHAR
STARTCHAR Scaron
ENCODING 352
SWIDTH 576 0
DWIDTH 14 0
BBX 16 26 0 0
BITMAP
0204
030C
079E
03FC
01F8
00F0
0060
0000
0008
01FE
0FFF
3FFF
7FFF
FE00
FF80
FFC0
7FC0
03E0
0070
0070
00F0
03F0
3FE0
7FC0
7F80
3E00
ENDCHAR
STARTCHAR scaron
ENCODING 353
SWIDTH 463 0
DWIDTH 11 0
BBX 14 23 0 0
BITMAP
0820
1C30
1C78
1EF0
0FE0
07C0
0100
0000
0000
03F8
1FF8
7FFC
FE00
FE00
FF00
3F80
01C0
01C0
01C0
07C0
7F80
7F00
7C00
ENDCHAR
STARTCHAR Ydieresis
ENCODING 376
SWIDTH 493 0
DWIDTH 12 0
BBX 14 25 1 -1
BITMAP
0400
1E38
1E3C
1E38
0000
0000
4010
E078
F0F8
71F8
79F0
7BE0
7FE0
7FC0
3F80
3F00
1F00
3E00
3C00
7C00
7800
F800
F000
F000
6000
ENDCHAR
STARTCHAR Zcaron
ENCODING 381
SWIDTH 664 0
DWIDTH 16 0
BBX 17 27 0 -1
BITMAP
008100
00C380
01E780
00FF80
007E00
003C00
001800
000000
000000
0FFF00
1FFF00
0FFF80
0FFF00
007F00
00FC00
01F800
07F000
0FE000
3FC000
7F0000
FE0000
F83C00
F9FE00
FFFE00
FFF800
7FC000
3C0000
ENDCHAR
STARTCHAR zcaron
ENCODING 382
SWIDTH 547 0
DWIDTH 13 0
BBX 15 25 0 -1
BITMAP
0204
030C
079E
03FC
01F8
00F0
0060
0000
0000
0000
1FF8
1FFC
1FFC
00F8
01F0
03E0
0FC0
1F80
7E00
FC00
F0F0
FFF0
FFF0
7F80
7C00
ENDCHAR
STARTCHAR circumflex
ENCODING 710
SWIDTH 754 0
DWIDTH 18 0
BBX 9 7 6 12
BITMAP
0800
1C00
7F00
F780
F780
E380
4100
ENDCHAR
STARTCHAR caron
ENCODING 711
SWIDTH 754 0
DWIDTH 18 0
BBX 9 7 6 12
BITMAP
4100
C180
E380
F780
7F00
3E00
0800
ENDCHAR
STARTCHAR breve
ENCODING 728
SWIDTH 754 0
DWIDTH 18 0
BBX 9 6 6 13
BITMAP
4100
C180
E380
FF80
7F00
1C00
ENDCHAR
STARTCHAR dotaccent
ENCODING 729
SWIDTH 754 0
DWIDTH 18 0
BBX 5 4 8 14
BITMAP
20
70
F8
70
ENDCHAR
STARTCHAR ring
ENCODING 730
SWIDTH 754 0
DWIDTH 18 0
BBX 7 8 7 12
BITMAP
08
1C
3C
7C
EE
FE
FE
78
ENDCHAR
STARTCHAR ogonek
ENCODING 731
SWIDTH 754 0
DWIDTH 18 0
BBX 9 7 7 -6
BITMAP
4000
C000
C000
E000
F800
7F80
3F80
ENDCHAR
STARTCHAR tilde
ENCODING 732
SWIDTH 754 0
DWIDTH 18 0
BBX 11 5 5 13
BITMAP
3C60
7EE0
FFC0
EFC0
8300
ENDCHAR
STARTCHAR hungarumlaut
ENCODING 733
SWIDTH 754 0
DWIDTH 18 0
BBX 13 7 4 11
BITMAP
0C10
1E78
3EF8
7DF8
F9E0
F3C0
E380
ENDCHAR
STARTCHAR endash
ENCODING 8211
SWIDTH 588 0
DWIDTH 14 0
BBX 13 4 0 4
BITMAP
7FF0
FFF8
7FF0
6000
ENDCHAR
STARTCHAR emdash
ENCODING 8212
SWIDTH 878 0
DWIDTH 21 0
BBX 20 3 0 5
BITMAP
FFFFC0
7FFFF0
7FFFE0
ENDCHAR
STARTCHAR quoteleft
ENCODING 8216
SWIDTH 203 0
DWIDTH 5 0
BBX 6 7 2 11
BITMAP
38
7C
78
F0
F0
E0
E0
ENDCHAR
STARTCHAR quoteright
ENCODING 8217
SWIDTH 199 0
DWIDTH 5 0
BBX 5 7 2 11
BITMAP
30
38
78
78
F0
F0
E0
ENDCHAR
STARTCHAR quotesinglbase
ENCODING 8218
SWIDTH 204 0
DWIDTH 5 0
BBX 6 7 -3 -4
BITMAP
3C
3C
3C
3C
78
F8
70
ENDCHAR
STARTCHAR quotedblleft
ENCODING 8220
SWIDTH 410 0
DWIDTH 10 0
BBX 11 8 2 10
BITMAP
39C0
7BE0
7BC0
F780
F780
E700
E700
2000
ENDCHAR
STARTCHAR quotedblright
ENCODING 8221
SWIDTH 425 0
DWIDTH 10 0
BBX 11 7 2 11
BITMAP
31C0
39E0
79E0
7BC0
F3C0
F780
E700
ENDCHAR
STARTCHAR quotedblbase
ENCODING 8222
SWIDTH 430 0
DWIDTH 10 0
BBX 11 7 -3 -4
BITMAP
3CE0
3CE0
3DE0
3DE0
7BC0
FFC0
7380
ENDCHAR
STARTCHAR bullet
ENCODING 8226
SWIDTH 299 0
DWIDTH 7 0
BBX 5 6 1 4
BITMAP
60
F0
F8
F8
F0
40
ENDCHAR
STARTCHAR ellipsis
ENCODING 8230
SWIDTH 768 0
DWIDTH 18 0
BBX 18 5 -1 -1
BITMAP
208300
79E3C0
F1E780
71E380
20C100
ENDCHAR
STARTCHAR perthousand
ENCODING 8240
SWIDTH 889 0
DWIDTH 21 0
BBX 21 17 1 0
BITMAP
0C0600
1C0E00
3C1C00
7E3C00
EE7800
FEF000
FDE000
03C000
078000
0F2060
1E70E0
3CF1F0
79FBF0
73BB30
E3FBF8
E3F3F0
C08180
ENDCHAR
STARTCHAR guilsinglleft
ENCODING 8249
SWIDTH 322 0
DWIDTH 8 0
BBX 7 11 0 -1
BITMAP
06
0E
1E
7C
F0
E0
F0
78
3C
0C
04
ENDCHAR
STARTCHAR guilsinglright
ENCODING 8250
SWIDTH 341 0
DWIDTH 8 0
BBX 7 11 0 -1
BITMAP
60
70
78
3C
0E
3E
7C
F0
E0
C0
80
ENDCHAR
STARTCHAR fraction
ENCODING 8260
SWIDTH 541 0
DWIDTH 13 0
BBX 13 18 0 0
BITMAP
0008
0018
0038
0078
00F0
01E0
01C0
03C0
0780
0F00
1E00
1C00
3C00
7800
7000
F000
F000
E000
ENDCHAR
STARTCHAR Euro
ENCODING 8364
SWIDTH 565 0
DWIDTH 14 0
BBX 13 14 0 0
BITMAP
0070
01F8
07F8
0FF0
1F80
3E00
3FC0
FFE0
FFE0
F800
3FE0
1FF0
0FF0
01E0
ENDCHAR
STARTCHAR Delta
ENCODING 8710
SWIDTH 403 0
DWIDTH 10 0
BBX 14 14 -1 0
BITMAP
1FF8
1FFC
1FF0
0380
0380
0380
0780
0700
0700
0F00
0E00
FF80
FFC0
7F80
ENDCHAR
STARTCHAR minus
ENCODING 8722
SWIDTH 548 0
DWIDTH 13 0
BBX 12 4 0 4
BITMAP
FFE0
FFF0
FFF0
4000
ENDCHAR
STARTCHAR approxequal
ENCODING 8776
SWIDTH 323 0
DWIDTH 8 0
BBX 6 17 1 0
BITMAP
18
38
3C
3C
7C
7C
78
78
F8
F0
F0
F0
F0
F0
F0
70
70
ENDCHAR
STARTCHAR fi
ENCODING 64257
SWIDTH 810 0
DWIDTH 19 0
BBX 18 15 0 0
BITMAP
003000
03F980
1FFDC0
7FE1C0
7E03C0
3C03C0
1C03C0
7CC380
FFE780
FFC780
FF0780
700780
F00780
E00380
600380
ENDCHAR
STARTCHAR fl
ENCODING 64258
SWIDTH 1012 0
DWIDTH 24 0
BBX 24 15 0 0
BITMAP
003000
03F9C0
1FFDC0
7FE3C0
7E03C0
3C0380
1C0780
7CC780
FFE700
FFCF00
FF0F00
700E7C
F00FFF
E00FFF
6007E6
ENDCHAR
STARTCHAR .notdef
ENCODING -1
SWIDTH 370 0
DWIDTH 9 0
BBX 1 1 0 0
BITMAP
00
ENDCHAR
ENDFONT
